<?xml version="1.0" standalone="no"?><!DOCTYPE svg PUBLIC "-//W3C//DTD SVG 1.1//EN" "http://www.w3.org/Graphics/SVG/1.1/DTD/svg11.dtd"><svg t="1779161945257" class="icon" viewBox="0 0 1024 1024" version="1.1" xmlns="http://www.w3.org/2000/svg" p-id="4508" xmlns:xlink="http://www.w3.org/1999/xlink" width="200" height="200"><path d="M256 512a256 256 0 1 1 256 256 256 256 0 0 1-256-256z m256-153.6a153.6 153.6 0 1 0 153.6 153.6 153.6 153.6 0 0 0-153.6-153.6z" p-id="4509"></path><path d="M844.8 230.4a51.2 51.2 0 1 1-51.2-51.2 51.2 51.2 0 0 1 51.2 51.2z" p-id="4510"></path><path d="M768 0H256a256 256 0 0 0-256 256v512a256 256 0 0 0 256 256h512a256 256 0 0 0 256-256V256a256 256 0 0 0-256-256z m153.6 768a153.6 153.6 0 0 1-153.6 153.6H256a153.6 153.6 0 0 1-153.6-153.6V256a153.6 153.6 0 0 1 153.6-153.6h512a153.6 153.6 0 0 1 153.6 153.6z" p-id="4511"></path></svg>